<mxfile host="Electron" agent="Mozilla/5.0 (Windows NT 10.0; Win64; x64) AppleWebKit/537.36 (KHTML, like Gecko) draw.io/24.7.17 Chrome/128.0.6613.36 Electron/32.0.1 Safari/537.36" version="24.7.17">
  <diagram name="Página-1" id="bCgJ6JT6X58QRZu8vhkq">
    <mxGraphModel dx="782" dy="908" grid="1" gridSize="10" guides="1" tooltips="1" connect="1" arrows="1" fold="1" page="1" pageScale="1" pageWidth="827" pageHeight="1169" math="0" shadow="0">
      <root>
        <mxCell id="0" />
        <mxCell id="1" parent="0" />
        <mxCell id="mgjaZ6Gcmd7h5fC-XKiR-1" value="" style="shape=umlLifeline;perimeter=lifelinePerimeter;whiteSpace=wrap;html=1;container=1;dropTarget=0;collapsible=0;recursiveResize=0;outlineConnect=0;portConstraint=eastwest;newEdgeStyle={&quot;curved&quot;:0,&quot;rounded&quot;:0};participant=umlActor;" vertex="1" parent="1">
          <mxGeometry x="170" y="132" width="20" height="490" as="geometry" />
        </mxCell>
        <mxCell id="mgjaZ6Gcmd7h5fC-XKiR-5" value="" style="html=1;points=[[0,0,0,0,5],[0,1,0,0,-5],[1,0,0,0,5],[1,1,0,0,-5]];perimeter=orthogonalPerimeter;outlineConnect=0;targetShapes=umlLifeline;portConstraint=eastwest;newEdgeStyle={&quot;curved&quot;:0,&quot;rounded&quot;:0};" vertex="1" parent="mgjaZ6Gcmd7h5fC-XKiR-1">
          <mxGeometry x="5" y="50" width="10" height="440" as="geometry" />
        </mxCell>
        <mxCell id="mgjaZ6Gcmd7h5fC-XKiR-2" value="" style="shape=umlLifeline;perimeter=lifelinePerimeter;whiteSpace=wrap;html=1;container=1;dropTarget=0;collapsible=0;recursiveResize=0;outlineConnect=0;portConstraint=eastwest;newEdgeStyle={&quot;curved&quot;:0,&quot;rounded&quot;:0};participant=umlBoundary;" vertex="1" parent="1">
          <mxGeometry x="310" y="132" width="50" height="490" as="geometry" />
        </mxCell>
        <mxCell id="mgjaZ6Gcmd7h5fC-XKiR-15" value="" style="html=1;points=[[0,0,0,0,5],[0,1,0,0,-5],[1,0,0,0,5],[1,1,0,0,-5]];perimeter=orthogonalPerimeter;outlineConnect=0;targetShapes=umlLifeline;portConstraint=eastwest;newEdgeStyle={&quot;curved&quot;:0,&quot;rounded&quot;:0};" vertex="1" parent="mgjaZ6Gcmd7h5fC-XKiR-2">
          <mxGeometry x="20" y="50" width="10" height="440" as="geometry" />
        </mxCell>
        <mxCell id="mgjaZ6Gcmd7h5fC-XKiR-3" value="" style="shape=umlLifeline;perimeter=lifelinePerimeter;whiteSpace=wrap;html=1;container=1;dropTarget=0;collapsible=0;recursiveResize=0;outlineConnect=0;portConstraint=eastwest;newEdgeStyle={&quot;curved&quot;:0,&quot;rounded&quot;:0};participant=umlEntity;" vertex="1" parent="1">
          <mxGeometry x="640" y="132" width="40" height="480" as="geometry" />
        </mxCell>
        <mxCell id="mgjaZ6Gcmd7h5fC-XKiR-4" value="" style="shape=umlLifeline;perimeter=lifelinePerimeter;whiteSpace=wrap;html=1;container=1;dropTarget=0;collapsible=0;recursiveResize=0;outlineConnect=0;portConstraint=eastwest;newEdgeStyle={&quot;curved&quot;:0,&quot;rounded&quot;:0};participant=umlControl;" vertex="1" parent="1">
          <mxGeometry x="480" y="132" width="40" height="490" as="geometry" />
        </mxCell>
        <mxCell id="mgjaZ6Gcmd7h5fC-XKiR-35" value="" style="html=1;points=[[0,0,0,0,5],[0,1,0,0,-5],[1,0,0,0,5],[1,1,0,0,-5]];perimeter=orthogonalPerimeter;outlineConnect=0;targetShapes=umlLifeline;portConstraint=eastwest;newEdgeStyle={&quot;curved&quot;:0,&quot;rounded&quot;:0};" vertex="1" parent="mgjaZ6Gcmd7h5fC-XKiR-4">
          <mxGeometry x="15" y="240" width="10" height="40" as="geometry" />
        </mxCell>
        <mxCell id="mgjaZ6Gcmd7h5fC-XKiR-50" value="" style="html=1;points=[[0,0,0,0,5],[0,1,0,0,-5],[1,0,0,0,5],[1,1,0,0,-5]];perimeter=orthogonalPerimeter;outlineConnect=0;targetShapes=umlLifeline;portConstraint=eastwest;newEdgeStyle={&quot;curved&quot;:0,&quot;rounded&quot;:0};" vertex="1" parent="mgjaZ6Gcmd7h5fC-XKiR-4">
          <mxGeometry x="15" y="434" width="10" height="56" as="geometry" />
        </mxCell>
        <mxCell id="mgjaZ6Gcmd7h5fC-XKiR-6" value="" style="shape=umlLifeline;perimeter=lifelinePerimeter;whiteSpace=wrap;html=1;container=1;dropTarget=0;collapsible=0;recursiveResize=0;outlineConnect=0;portConstraint=eastwest;newEdgeStyle={&quot;curved&quot;:0,&quot;rounded&quot;:0};participant=umlActor;" vertex="1" parent="1">
          <mxGeometry x="900" y="112" width="20" height="490" as="geometry" />
        </mxCell>
        <mxCell id="mgjaZ6Gcmd7h5fC-XKiR-7" value="" style="html=1;points=[[0,0,0,0,5],[0,1,0,0,-5],[1,0,0,0,5],[1,1,0,0,-5]];perimeter=orthogonalPerimeter;outlineConnect=0;targetShapes=umlLifeline;portConstraint=eastwest;newEdgeStyle={&quot;curved&quot;:0,&quot;rounded&quot;:0};" vertex="1" parent="mgjaZ6Gcmd7h5fC-XKiR-6">
          <mxGeometry x="5" y="50" width="10" height="440" as="geometry" />
        </mxCell>
        <mxCell id="mgjaZ6Gcmd7h5fC-XKiR-8" value="" style="shape=umlLifeline;perimeter=lifelinePerimeter;whiteSpace=wrap;html=1;container=1;dropTarget=0;collapsible=0;recursiveResize=0;outlineConnect=0;portConstraint=eastwest;newEdgeStyle={&quot;curved&quot;:0,&quot;rounded&quot;:0};participant=umlBoundary;" vertex="1" parent="1">
          <mxGeometry x="1040" y="112" width="50" height="490" as="geometry" />
        </mxCell>
        <mxCell id="mgjaZ6Gcmd7h5fC-XKiR-75" value="" style="html=1;points=[[0,0,0,0,5],[0,1,0,0,-5],[1,0,0,0,5],[1,1,0,0,-5]];perimeter=orthogonalPerimeter;outlineConnect=0;targetShapes=umlLifeline;portConstraint=eastwest;newEdgeStyle={&quot;curved&quot;:0,&quot;rounded&quot;:0};" vertex="1" parent="mgjaZ6Gcmd7h5fC-XKiR-8">
          <mxGeometry x="20" y="55" width="10" height="435" as="geometry" />
        </mxCell>
        <mxCell id="mgjaZ6Gcmd7h5fC-XKiR-77" value="solicitarDatos" style="html=1;verticalAlign=bottom;endArrow=open;endSize=8;curved=0;rounded=0;exitX=0;exitY=1;exitDx=0;exitDy=-5;" edge="1" parent="mgjaZ6Gcmd7h5fC-XKiR-8">
          <mxGeometry relative="1" as="geometry">
            <mxPoint x="-125" y="89" as="targetPoint" />
            <mxPoint x="20" y="89" as="sourcePoint" />
          </mxGeometry>
        </mxCell>
        <mxCell id="mgjaZ6Gcmd7h5fC-XKiR-9" value="" style="shape=umlLifeline;perimeter=lifelinePerimeter;whiteSpace=wrap;html=1;container=1;dropTarget=0;collapsible=0;recursiveResize=0;outlineConnect=0;portConstraint=eastwest;newEdgeStyle={&quot;curved&quot;:0,&quot;rounded&quot;:0};participant=umlEntity;" vertex="1" parent="1">
          <mxGeometry x="1370" y="112" width="40" height="488" as="geometry" />
        </mxCell>
        <mxCell id="mgjaZ6Gcmd7h5fC-XKiR-10" value="" style="shape=umlLifeline;perimeter=lifelinePerimeter;whiteSpace=wrap;html=1;container=1;dropTarget=0;collapsible=0;recursiveResize=0;outlineConnect=0;portConstraint=eastwest;newEdgeStyle={&quot;curved&quot;:0,&quot;rounded&quot;:0};participant=umlControl;" vertex="1" parent="1">
          <mxGeometry x="1210" y="112" width="40" height="488" as="geometry" />
        </mxCell>
        <mxCell id="mgjaZ6Gcmd7h5fC-XKiR-11" value="Responsable" style="text;html=1;align=center;verticalAlign=middle;resizable=0;points=[];autosize=1;strokeColor=none;fillColor=none;" vertex="1" parent="1">
          <mxGeometry x="135" y="100" width="90" height="30" as="geometry" />
        </mxCell>
        <mxCell id="mgjaZ6Gcmd7h5fC-XKiR-12" value="View" style="text;html=1;align=center;verticalAlign=middle;resizable=0;points=[];autosize=1;strokeColor=none;fillColor=none;" vertex="1" parent="1">
          <mxGeometry x="310" y="100" width="50" height="30" as="geometry" />
        </mxCell>
        <mxCell id="mgjaZ6Gcmd7h5fC-XKiR-13" value="Controller" style="text;html=1;align=center;verticalAlign=middle;resizable=0;points=[];autosize=1;strokeColor=none;fillColor=none;" vertex="1" parent="1">
          <mxGeometry x="460" y="100" width="80" height="30" as="geometry" />
        </mxCell>
        <mxCell id="mgjaZ6Gcmd7h5fC-XKiR-14" value="BB.DD" style="text;html=1;align=center;verticalAlign=middle;resizable=0;points=[];autosize=1;strokeColor=none;fillColor=none;" vertex="1" parent="1">
          <mxGeometry x="630" y="100" width="60" height="30" as="geometry" />
        </mxCell>
        <mxCell id="mgjaZ6Gcmd7h5fC-XKiR-16" value="seleccionarCerrarCaja()" style="html=1;verticalAlign=bottom;endArrow=block;curved=0;rounded=0;entryX=0;entryY=0;entryDx=0;entryDy=5;exitX=1;exitY=0;exitDx=0;exitDy=5;exitPerimeter=0;" edge="1" target="mgjaZ6Gcmd7h5fC-XKiR-15" parent="1" source="mgjaZ6Gcmd7h5fC-XKiR-5">
          <mxGeometry relative="1" as="geometry">
            <mxPoint x="190" y="192" as="sourcePoint" />
          </mxGeometry>
        </mxCell>
        <mxCell id="mgjaZ6Gcmd7h5fC-XKiR-18" value="introduciriD" style="html=1;verticalAlign=bottom;endArrow=block;curved=0;rounded=0;entryX=0;entryY=0;entryDx=0;entryDy=5;dashed=1;" edge="1" parent="1" source="mgjaZ6Gcmd7h5fC-XKiR-5">
          <mxGeometry relative="1" as="geometry">
            <mxPoint x="190" y="242" as="sourcePoint" />
            <mxPoint x="330" y="242" as="targetPoint" />
          </mxGeometry>
        </mxCell>
        <mxCell id="mgjaZ6Gcmd7h5fC-XKiR-19" value="" style="html=1;points=[[0,0,0,0,5],[0,1,0,0,-5],[1,0,0,0,5],[1,1,0,0,-5]];perimeter=orthogonalPerimeter;outlineConnect=0;targetShapes=umlLifeline;portConstraint=eastwest;newEdgeStyle={&quot;curved&quot;:0,&quot;rounded&quot;:0};" vertex="1" parent="1">
          <mxGeometry x="495" y="247" width="10" height="45" as="geometry" />
        </mxCell>
        <mxCell id="mgjaZ6Gcmd7h5fC-XKiR-20" value="confirmarID()" style="html=1;verticalAlign=bottom;endArrow=block;curved=0;rounded=0;entryX=0;entryY=0;entryDx=0;entryDy=5;" edge="1" target="mgjaZ6Gcmd7h5fC-XKiR-19" parent="1" source="mgjaZ6Gcmd7h5fC-XKiR-15">
          <mxGeometry relative="1" as="geometry">
            <mxPoint x="425" y="252" as="sourcePoint" />
          </mxGeometry>
        </mxCell>
        <mxCell id="mgjaZ6Gcmd7h5fC-XKiR-21" value="retornarVerificación" style="html=1;verticalAlign=bottom;endArrow=open;dashed=1;endSize=8;curved=0;rounded=0;exitX=0;exitY=1;exitDx=0;exitDy=-5;" edge="1" source="mgjaZ6Gcmd7h5fC-XKiR-19" parent="1" target="mgjaZ6Gcmd7h5fC-XKiR-15">
          <mxGeometry relative="1" as="geometry">
            <mxPoint x="425" y="322" as="targetPoint" />
          </mxGeometry>
        </mxCell>
        <mxCell id="mgjaZ6Gcmd7h5fC-XKiR-22" value="" style="html=1;points=[[0,0,0,0,5],[0,1,0,0,-5],[1,0,0,0,5],[1,1,0,0,-5]];perimeter=orthogonalPerimeter;outlineConnect=0;targetShapes=umlLifeline;portConstraint=eastwest;newEdgeStyle={&quot;curved&quot;:0,&quot;rounded&quot;:0};" vertex="1" parent="1">
          <mxGeometry x="655" y="252" width="10" height="30" as="geometry" />
        </mxCell>
        <mxCell id="mgjaZ6Gcmd7h5fC-XKiR-23" value="confirmarID()" style="html=1;verticalAlign=bottom;endArrow=block;curved=0;rounded=0;entryX=0;entryY=0;entryDx=0;entryDy=5;" edge="1" target="mgjaZ6Gcmd7h5fC-XKiR-22" parent="1" source="mgjaZ6Gcmd7h5fC-XKiR-19">
          <mxGeometry relative="1" as="geometry">
            <mxPoint x="585" y="257" as="sourcePoint" />
          </mxGeometry>
        </mxCell>
        <mxCell id="mgjaZ6Gcmd7h5fC-XKiR-24" value="retornarVerificación" style="html=1;verticalAlign=bottom;endArrow=open;dashed=1;endSize=8;curved=0;rounded=0;exitX=0;exitY=1;exitDx=0;exitDy=-5;" edge="1" source="mgjaZ6Gcmd7h5fC-XKiR-22" parent="1" target="mgjaZ6Gcmd7h5fC-XKiR-19">
          <mxGeometry relative="1" as="geometry">
            <mxPoint x="585" y="327" as="targetPoint" />
          </mxGeometry>
        </mxCell>
        <mxCell id="mgjaZ6Gcmd7h5fC-XKiR-29" value="solicitarReencuentro" style="html=1;verticalAlign=bottom;endArrow=block;curved=0;rounded=0;dashed=1;" edge="1" parent="1">
          <mxGeometry relative="1" as="geometry">
            <mxPoint x="186" y="323" as="sourcePoint" />
            <mxPoint x="330" y="323" as="targetPoint" />
          </mxGeometry>
        </mxCell>
        <mxCell id="mgjaZ6Gcmd7h5fC-XKiR-32" value="introducirDatos" style="html=1;verticalAlign=bottom;endArrow=block;curved=0;rounded=0;dashed=1;" edge="1" parent="1">
          <mxGeometry relative="1" as="geometry">
            <mxPoint x="185" y="376" as="sourcePoint" />
            <mxPoint x="329" y="376" as="targetPoint" />
          </mxGeometry>
        </mxCell>
        <mxCell id="mgjaZ6Gcmd7h5fC-XKiR-33" value="loop" style="shape=umlFrame;whiteSpace=wrap;html=1;pointerEvents=0;fillColor=#60a917;fontColor=#ffffff;strokeColor=#2D7600;" vertex="1" parent="1">
          <mxGeometry x="40" y="352" width="470" height="40" as="geometry" />
        </mxCell>
        <mxCell id="mgjaZ6Gcmd7h5fC-XKiR-34" value="[Para cada&amp;nbsp;&lt;div&gt;desvio]&lt;/div&gt;" style="text;html=1;align=center;verticalAlign=middle;resizable=0;points=[];autosize=1;strokeColor=none;fillColor=none;" vertex="1" parent="1">
          <mxGeometry x="90" y="352" width="80" height="40" as="geometry" />
        </mxCell>
        <mxCell id="mgjaZ6Gcmd7h5fC-XKiR-36" value="introducirDatos()" style="html=1;verticalAlign=bottom;endArrow=block;curved=0;rounded=0;entryX=0;entryY=0;entryDx=0;entryDy=5;" edge="1" target="mgjaZ6Gcmd7h5fC-XKiR-35" parent="1">
          <mxGeometry relative="1" as="geometry">
            <mxPoint x="340" y="377" as="sourcePoint" />
          </mxGeometry>
        </mxCell>
        <mxCell id="mgjaZ6Gcmd7h5fC-XKiR-37" value="calculoTotal" style="html=1;verticalAlign=bottom;endArrow=open;dashed=1;endSize=8;curved=0;rounded=0;exitX=0;exitY=1;exitDx=0;exitDy=-5;" edge="1" parent="1">
          <mxGeometry relative="1" as="geometry">
            <mxPoint x="340" y="412" as="targetPoint" />
            <mxPoint x="495" y="412" as="sourcePoint" />
          </mxGeometry>
        </mxCell>
        <mxCell id="mgjaZ6Gcmd7h5fC-XKiR-42" value="alt" style="shape=umlFrame;whiteSpace=wrap;html=1;pointerEvents=0;fillColor=#d80073;fontColor=#ffffff;strokeColor=#A50040;" vertex="1" parent="1">
          <mxGeometry x="70" y="452" width="600" height="170" as="geometry" />
        </mxCell>
        <mxCell id="mgjaZ6Gcmd7h5fC-XKiR-48" value="aceptarCalculoTotal()" style="html=1;verticalAlign=bottom;endArrow=block;curved=0;rounded=0;" edge="1" parent="1">
          <mxGeometry relative="1" as="geometry">
            <mxPoint x="184" y="556" as="sourcePoint" />
            <mxPoint x="328" y="556" as="targetPoint" />
          </mxGeometry>
        </mxCell>
        <mxCell id="mgjaZ6Gcmd7h5fC-XKiR-49" value="aceptarCalculoTotal()" style="html=1;verticalAlign=bottom;endArrow=block;curved=0;rounded=0;" edge="1" parent="1" target="mgjaZ6Gcmd7h5fC-XKiR-50">
          <mxGeometry relative="1" as="geometry">
            <mxPoint x="340" y="566" as="sourcePoint" />
            <mxPoint x="484" y="566" as="targetPoint" />
          </mxGeometry>
        </mxCell>
        <mxCell id="mgjaZ6Gcmd7h5fC-XKiR-60" value="noAceptarCalculoTotal" style="html=1;verticalAlign=bottom;endArrow=block;curved=0;rounded=0;dashed=1;" edge="1" parent="1">
          <mxGeometry relative="1" as="geometry">
            <mxPoint x="190" y="472" as="sourcePoint" />
            <mxPoint x="334" y="472" as="targetPoint" />
          </mxGeometry>
        </mxCell>
        <mxCell id="mgjaZ6Gcmd7h5fC-XKiR-62" value="&lt;span style=&quot;font-size: 12px; background-color: rgb(27, 29, 30);&quot;&gt;finalizarProceso&lt;/span&gt;" style="html=1;verticalAlign=bottom;endArrow=open;endSize=8;curved=0;rounded=0;exitX=0;exitY=1;exitDx=0;exitDy=-5;" edge="1" parent="1">
          <mxGeometry relative="1" as="geometry">
            <mxPoint x="183" y="501.36" as="targetPoint" />
            <mxPoint x="328.2099999999998" y="501" as="sourcePoint" />
          </mxGeometry>
        </mxCell>
        <mxCell id="mgjaZ6Gcmd7h5fC-XKiR-63" value="" style="endArrow=open;endFill=1;endSize=12;html=1;rounded=0;" edge="1" parent="1">
          <mxGeometry width="160" relative="1" as="geometry">
            <mxPoint x="505" y="572" as="sourcePoint" />
            <mxPoint x="650" y="572" as="targetPoint" />
          </mxGeometry>
        </mxCell>
        <mxCell id="mgjaZ6Gcmd7h5fC-XKiR-64" value="&lt;span style=&quot;font-size: 11px; background-color: rgb(24, 20, 29);&quot;&gt;guardarDatos&amp;nbsp;&lt;/span&gt;" style="text;html=1;align=center;verticalAlign=middle;resizable=0;points=[];autosize=1;strokeColor=none;fillColor=none;" vertex="1" parent="1">
          <mxGeometry x="533" y="547" width="90" height="30" as="geometry" />
        </mxCell>
        <mxCell id="mgjaZ6Gcmd7h5fC-XKiR-53" value="" style="html=1;points=[[0,0,0,0,5],[0,1,0,0,-5],[1,0,0,0,5],[1,1,0,0,-5]];perimeter=orthogonalPerimeter;outlineConnect=0;targetShapes=umlLifeline;portConstraint=eastwest;newEdgeStyle={&quot;curved&quot;:0,&quot;rounded&quot;:0};" vertex="1" parent="1">
          <mxGeometry x="655" y="566" width="10" height="16" as="geometry" />
        </mxCell>
        <mxCell id="mgjaZ6Gcmd7h5fC-XKiR-65" value="&lt;span style=&quot;font-size: 12px; background-color: rgb(27, 29, 30);&quot;&gt;sacarDinero&lt;/span&gt;" style="html=1;verticalAlign=bottom;endArrow=open;dashed=1;endSize=8;curved=0;rounded=0;exitX=0;exitY=1;exitDx=0;exitDy=-5;" edge="1" parent="1">
          <mxGeometry relative="1" as="geometry">
            <mxPoint x="344.78999999999996" y="598.36" as="targetPoint" />
            <mxPoint x="489.9999999999998" y="598" as="sourcePoint" />
          </mxGeometry>
        </mxCell>
        <mxCell id="mgjaZ6Gcmd7h5fC-XKiR-66" value="&lt;span style=&quot;font-size: 12px; background-color: rgb(27, 29, 30);&quot;&gt;sacarDinero&lt;/span&gt;" style="html=1;verticalAlign=bottom;endArrow=open;dashed=1;endSize=8;curved=0;rounded=0;exitX=0;exitY=1;exitDx=0;exitDy=-5;" edge="1" parent="1">
          <mxGeometry relative="1" as="geometry">
            <mxPoint x="185" y="608.36" as="targetPoint" />
            <mxPoint x="330.2099999999998" y="608" as="sourcePoint" />
          </mxGeometry>
        </mxCell>
        <mxCell id="mgjaZ6Gcmd7h5fC-XKiR-67" value="" style="line;strokeWidth=1;fillColor=none;align=left;verticalAlign=middle;spacingTop=-1;spacingLeft=3;spacingRight=3;rotatable=0;labelPosition=right;points=[];portConstraint=eastwest;strokeColor=inherit;dashed=1;" vertex="1" parent="1">
          <mxGeometry x="70" y="522" width="600" height="8" as="geometry" />
        </mxCell>
        <mxCell id="mgjaZ6Gcmd7h5fC-XKiR-68" value="&lt;font style=&quot;font-size: 24px;&quot;&gt;3&lt;/font&gt;" style="text;html=1;align=center;verticalAlign=middle;resizable=0;points=[];autosize=1;strokeColor=none;fillColor=none;" vertex="1" parent="1">
          <mxGeometry x="60" y="20" width="40" height="40" as="geometry" />
        </mxCell>
        <mxCell id="mgjaZ6Gcmd7h5fC-XKiR-70" value="&lt;font style=&quot;font-size: 24px;&quot;&gt;4&lt;/font&gt;" style="text;html=1;align=center;verticalAlign=middle;resizable=0;points=[];autosize=1;strokeColor=none;fillColor=none;" vertex="1" parent="1">
          <mxGeometry x="840" y="33" width="40" height="40" as="geometry" />
        </mxCell>
        <mxCell id="mgjaZ6Gcmd7h5fC-XKiR-71" value="Usuario" style="text;html=1;align=center;verticalAlign=middle;resizable=0;points=[];autosize=1;strokeColor=none;fillColor=none;" vertex="1" parent="1">
          <mxGeometry x="880" y="78" width="60" height="30" as="geometry" />
        </mxCell>
        <mxCell id="mgjaZ6Gcmd7h5fC-XKiR-72" value="View" style="text;html=1;align=center;verticalAlign=middle;resizable=0;points=[];autosize=1;strokeColor=none;fillColor=none;" vertex="1" parent="1">
          <mxGeometry x="1045" y="78" width="50" height="30" as="geometry" />
        </mxCell>
        <mxCell id="mgjaZ6Gcmd7h5fC-XKiR-73" value="Controller" style="text;html=1;align=center;verticalAlign=middle;resizable=0;points=[];autosize=1;strokeColor=none;fillColor=none;" vertex="1" parent="1">
          <mxGeometry x="1190" y="78" width="80" height="30" as="geometry" />
        </mxCell>
        <mxCell id="mgjaZ6Gcmd7h5fC-XKiR-74" value="BB.DD" style="text;html=1;align=center;verticalAlign=middle;resizable=0;points=[];autosize=1;strokeColor=none;fillColor=none;" vertex="1" parent="1">
          <mxGeometry x="1362" y="78" width="60" height="30" as="geometry" />
        </mxCell>
        <mxCell id="mgjaZ6Gcmd7h5fC-XKiR-76" value="&lt;span style=&quot;font-size: 12px; background-color: rgb(27, 29, 30);&quot;&gt;seleccionarPublicarAviso()&lt;/span&gt;" style="html=1;verticalAlign=bottom;endArrow=block;curved=0;rounded=0;entryX=0;entryY=0;entryDx=0;entryDy=5;" edge="1" target="mgjaZ6Gcmd7h5fC-XKiR-75" parent="1" source="mgjaZ6Gcmd7h5fC-XKiR-7">
          <mxGeometry relative="1" as="geometry">
            <mxPoint x="920" y="170" as="sourcePoint" />
          </mxGeometry>
        </mxCell>
        <mxCell id="mgjaZ6Gcmd7h5fC-XKiR-78" value="&lt;span style=&quot;font-size: 12px; background-color: rgb(27, 29, 30);&quot;&gt;introducirDatos()&lt;/span&gt;" style="html=1;verticalAlign=bottom;endArrow=block;curved=0;rounded=0;entryX=0;entryY=0;entryDx=0;entryDy=5;dashed=1;" edge="1" parent="1">
          <mxGeometry relative="1" as="geometry">
            <mxPoint x="916" y="230" as="sourcePoint" />
            <mxPoint x="1061" y="230" as="targetPoint" />
          </mxGeometry>
        </mxCell>
        <mxCell id="mgjaZ6Gcmd7h5fC-XKiR-79" value="" style="html=1;points=[[0,0,0,0,5],[0,1,0,0,-5],[1,0,0,0,5],[1,1,0,0,-5]];perimeter=orthogonalPerimeter;outlineConnect=0;targetShapes=umlLifeline;portConstraint=eastwest;newEdgeStyle={&quot;curved&quot;:0,&quot;rounded&quot;:0};" vertex="1" parent="1">
          <mxGeometry x="1066" y="260" width="10" height="40" as="geometry" />
        </mxCell>
        <mxCell id="mgjaZ6Gcmd7h5fC-XKiR-80" value="verificarFormato()" style="html=1;align=left;spacingLeft=2;endArrow=block;rounded=0;edgeStyle=orthogonalEdgeStyle;curved=0;rounded=0;" edge="1" target="mgjaZ6Gcmd7h5fC-XKiR-79" parent="1">
          <mxGeometry relative="1" as="geometry">
            <mxPoint x="1071" y="240" as="sourcePoint" />
            <Array as="points">
              <mxPoint x="1101" y="270" />
            </Array>
          </mxGeometry>
        </mxCell>
        <mxCell id="mgjaZ6Gcmd7h5fC-XKiR-82" value="formatoVerificado" style="html=1;verticalAlign=bottom;endArrow=open;dashed=1;endSize=8;curved=0;rounded=0;exitX=0;exitY=1;exitDx=0;exitDy=-5;" edge="1" parent="1">
          <mxGeometry relative="1" as="geometry">
            <mxPoint x="916" y="300" as="targetPoint" />
            <mxPoint x="1061" y="300" as="sourcePoint" />
          </mxGeometry>
        </mxCell>
        <mxCell id="mgjaZ6Gcmd7h5fC-XKiR-84" value="preguntarFecha" style="html=1;verticalAlign=bottom;endArrow=block;curved=0;rounded=0;" edge="1" parent="1">
          <mxGeometry relative="1" as="geometry">
            <mxPoint x="1060" y="326" as="sourcePoint" />
            <mxPoint x="915" y="326" as="targetPoint" />
          </mxGeometry>
        </mxCell>
        <mxCell id="mgjaZ6Gcmd7h5fC-XKiR-97" value="loop" style="shape=umlFrame;whiteSpace=wrap;html=1;pointerEvents=0;fillColor=#60a917;fontColor=#ffffff;strokeColor=#2D7600;" vertex="1" parent="1">
          <mxGeometry x="760" y="340" width="650" height="270" as="geometry" />
        </mxCell>
        <mxCell id="mgjaZ6Gcmd7h5fC-XKiR-100" value="[Sacar dinero]" style="text;html=1;align=center;verticalAlign=middle;resizable=0;points=[];autosize=1;strokeColor=none;fillColor=none;" vertex="1" parent="1">
          <mxGeometry x="63" y="487" width="100" height="30" as="geometry" />
        </mxCell>
        <mxCell id="mgjaZ6Gcmd7h5fC-XKiR-102" value="&lt;font style=&quot;font-size: 9px;&quot;&gt;[Guardar todas&amp;nbsp;&lt;/font&gt;&lt;div&gt;&lt;font style=&quot;font-size: 9px;&quot;&gt;las fechas]&lt;/font&gt;&lt;/div&gt;" style="text;html=1;align=center;verticalAlign=middle;resizable=0;points=[];autosize=1;strokeColor=none;fillColor=none;" vertex="1" parent="1">
          <mxGeometry x="824" y="342" width="90" height="40" as="geometry" />
        </mxCell>
        <mxCell id="mgjaZ6Gcmd7h5fC-XKiR-108" value="" style="line;strokeWidth=1;fillColor=none;align=left;verticalAlign=middle;spacingTop=-1;spacingLeft=3;spacingRight=3;rotatable=0;labelPosition=right;points=[];portConstraint=eastwest;strokeColor=inherit;dashed=1;" vertex="1" parent="1">
          <mxGeometry x="700" y="468" width="710" height="8" as="geometry" />
        </mxCell>
        <mxCell id="mgjaZ6Gcmd7h5fC-XKiR-154" value="solicitarID()" style="html=1;verticalAlign=bottom;endArrow=block;curved=0;rounded=0;" edge="1" parent="1">
          <mxGeometry relative="1" as="geometry">
            <mxPoint x="328" y="210" as="sourcePoint" />
            <mxPoint x="188" y="210" as="targetPoint" />
          </mxGeometry>
        </mxCell>
        <mxCell id="mgjaZ6Gcmd7h5fC-XKiR-156" value="verficiacionConfirmada()" style="html=1;verticalAlign=bottom;endArrow=block;curved=0;rounded=0;" edge="1" parent="1">
          <mxGeometry relative="1" as="geometry">
            <mxPoint x="328" y="300" as="sourcePoint" />
            <mxPoint x="188" y="300" as="targetPoint" />
          </mxGeometry>
        </mxCell>
        <mxCell id="mgjaZ6Gcmd7h5fC-XKiR-157" value="solicitarDatos()" style="html=1;verticalAlign=bottom;endArrow=block;curved=0;rounded=0;" edge="1" parent="1">
          <mxGeometry relative="1" as="geometry">
            <mxPoint x="330" y="346.64" as="sourcePoint" />
            <mxPoint x="190" y="346.64" as="targetPoint" />
          </mxGeometry>
        </mxCell>
        <mxCell id="mgjaZ6Gcmd7h5fC-XKiR-158" value="&lt;span style=&quot;font-size: 12px; background-color: rgb(27, 29, 30);&quot;&gt;mostrarCalculoTotal()&lt;/span&gt;" style="html=1;verticalAlign=bottom;endArrow=block;curved=0;rounded=0;" edge="1" parent="1">
          <mxGeometry relative="1" as="geometry">
            <mxPoint x="327" y="440" as="sourcePoint" />
            <mxPoint x="187" y="440" as="targetPoint" />
          </mxGeometry>
        </mxCell>
        <mxCell id="mgjaZ6Gcmd7h5fC-XKiR-94" value="" style="html=1;points=[[0,0,0,0,5],[0,1,0,0,-5],[1,0,0,0,5],[1,1,0,0,-5]];perimeter=orthogonalPerimeter;outlineConnect=0;targetShapes=umlLifeline;portConstraint=eastwest;newEdgeStyle={&quot;curved&quot;:0,&quot;rounded&quot;:0};" vertex="1" parent="1">
          <mxGeometry x="1385" y="423" width="10" height="22" as="geometry" />
        </mxCell>
        <mxCell id="mgjaZ6Gcmd7h5fC-XKiR-89" value="" style="html=1;points=[[0,0,0,0,5],[0,1,0,0,-5],[1,0,0,0,5],[1,1,0,0,-5]];perimeter=orthogonalPerimeter;outlineConnect=0;targetShapes=umlLifeline;portConstraint=eastwest;newEdgeStyle={&quot;curved&quot;:0,&quot;rounded&quot;:0};" vertex="1" parent="1">
          <mxGeometry x="1226" y="416" width="10" height="79" as="geometry" />
        </mxCell>
        <mxCell id="mgjaZ6Gcmd7h5fC-XKiR-81" value="opt" style="shape=umlFrame;whiteSpace=wrap;html=1;pointerEvents=0;fillColor=#6a00ff;fontColor=#ffffff;strokeColor=#3700CC;" vertex="1" parent="1">
          <mxGeometry x="780" y="382" width="290" height="51" as="geometry" />
        </mxCell>
        <mxCell id="mgjaZ6Gcmd7h5fC-XKiR-86" value="introducirRangoF" style="html=1;verticalAlign=bottom;endArrow=open;dashed=1;endSize=8;curved=0;rounded=0;exitX=1;exitY=1;exitDx=0;exitDy=-5;" edge="1" parent="1">
          <mxGeometry relative="1" as="geometry">
            <mxPoint x="1060" y="371" as="targetPoint" />
            <mxPoint x="920" y="371" as="sourcePoint" />
          </mxGeometry>
        </mxCell>
        <mxCell id="mgjaZ6Gcmd7h5fC-XKiR-87" value="noIntroducirClaseF" style="html=1;verticalAlign=bottom;endArrow=open;dashed=1;endSize=8;curved=0;rounded=0;exitX=1;exitY=1;exitDx=0;exitDy=-5;" edge="1" parent="1">
          <mxGeometry relative="1" as="geometry">
            <mxPoint x="1060" y="404" as="targetPoint" />
            <mxPoint x="920" y="404" as="sourcePoint" />
          </mxGeometry>
        </mxCell>
        <mxCell id="mgjaZ6Gcmd7h5fC-XKiR-88" value="formatoDenegado" style="html=1;verticalAlign=bottom;endArrow=open;dashed=1;endSize=8;curved=0;rounded=0;exitX=0;exitY=1;exitDx=0;exitDy=-5;" edge="1" parent="1">
          <mxGeometry relative="1" as="geometry">
            <mxPoint x="914" y="555" as="targetPoint" />
            <mxPoint x="1059" y="555" as="sourcePoint" />
          </mxGeometry>
        </mxCell>
        <mxCell id="mgjaZ6Gcmd7h5fC-XKiR-90" value="introducirRangoF" style="html=1;verticalAlign=bottom;endArrow=block;curved=0;rounded=0;entryX=0;entryY=0;entryDx=0;entryDy=5;" edge="1" target="mgjaZ6Gcmd7h5fC-XKiR-89" parent="1">
          <mxGeometry relative="1" as="geometry">
            <mxPoint x="1069.9999999999998" y="421" as="sourcePoint" />
          </mxGeometry>
        </mxCell>
        <mxCell id="mgjaZ6Gcmd7h5fC-XKiR-96" value="mostrarProcesoGuardado" style="html=1;verticalAlign=bottom;endArrow=open;dashed=1;endSize=8;curved=0;rounded=0;exitX=0;exitY=1;exitDx=0;exitDy=-5;" edge="1" parent="1">
          <mxGeometry relative="1" as="geometry">
            <mxPoint x="1236" y="444" as="targetPoint" />
            <mxPoint x="1385.0000000000002" y="444" as="sourcePoint" />
          </mxGeometry>
        </mxCell>
        <mxCell id="mgjaZ6Gcmd7h5fC-XKiR-95" value="guardarDatos" style="html=1;verticalAlign=bottom;endArrow=block;curved=0;rounded=0;entryX=0;entryY=0;entryDx=0;entryDy=5;" edge="1" parent="1">
          <mxGeometry relative="1" as="geometry">
            <mxPoint x="1236" y="426.0000000000001" as="sourcePoint" />
            <mxPoint x="1385.0000000000002" y="426.0000000000001" as="targetPoint" />
          </mxGeometry>
        </mxCell>
        <mxCell id="mgjaZ6Gcmd7h5fC-XKiR-99" value="&lt;span style=&quot;font-size: 11px;&quot;&gt;&amp;nbsp;&lt;/span&gt;" style="text;html=1;align=center;verticalAlign=middle;resizable=0;points=[];autosize=1;strokeColor=none;fillColor=none;" vertex="1" parent="1">
          <mxGeometry x="825" y="491" width="30" height="30" as="geometry" />
        </mxCell>
        <mxCell id="mgjaZ6Gcmd7h5fC-XKiR-103" value="mostrarInfo" style="html=1;verticalAlign=bottom;endArrow=block;curved=0;rounded=0;dashed=1;" edge="1" parent="1">
          <mxGeometry relative="1" as="geometry">
            <mxPoint x="1222" y="494" as="sourcePoint" />
            <mxPoint x="1077" y="494" as="targetPoint" />
          </mxGeometry>
        </mxCell>
        <mxCell id="mgjaZ6Gcmd7h5fC-XKiR-106" value="mostrarInfo" style="html=1;verticalAlign=bottom;endArrow=open;dashed=1;endSize=8;curved=0;rounded=0;exitX=0;exitY=1;exitDx=0;exitDy=-5;" edge="1" parent="1">
          <mxGeometry relative="1" as="geometry">
            <mxPoint x="916" y="507" as="targetPoint" />
            <mxPoint x="1061" y="507" as="sourcePoint" />
          </mxGeometry>
        </mxCell>
        <mxCell id="mgjaZ6Gcmd7h5fC-XKiR-109" value="" style="endArrow=open;endFill=1;endSize=12;html=1;rounded=0;" edge="1" parent="1">
          <mxGeometry width="160" relative="1" as="geometry">
            <mxPoint x="1059.9999999999998" y="595" as="sourcePoint" />
            <mxPoint x="915" y="595" as="targetPoint" />
            <Array as="points">
              <mxPoint x="1020" y="595" />
            </Array>
          </mxGeometry>
        </mxCell>
        <mxCell id="mgjaZ6Gcmd7h5fC-XKiR-110" value="finalizarProceso" style="text;html=1;align=center;verticalAlign=middle;resizable=0;points=[];autosize=1;strokeColor=none;fillColor=none;" vertex="1" parent="1">
          <mxGeometry x="945" y="569" width="110" height="30" as="geometry" />
        </mxCell>
        <mxCell id="mgjaZ6Gcmd7h5fC-XKiR-111" value="[introducir datos fecha]" style="text;html=1;align=center;verticalAlign=middle;resizable=0;points=[];autosize=1;strokeColor=none;fillColor=none;" vertex="1" parent="1">
          <mxGeometry x="774" y="411" width="140" height="30" as="geometry" />
        </mxCell>
      </root>
    </mxGraphModel>
  </diagram>
</mxfile>
